<mxfile host="app.diagrams.net" modified="2021-04-22T02:51:58.160Z" agent="5.0 (Macintosh; Intel Mac OS X 10_11_6) AppleWebKit/537.36 (KHTML, like Gecko) Chrome/89.0.4389.128 Safari/537.36" etag="bERG338piOjm-WdhMHHp" version="14.6.1" type="github">
  <diagram id="Z0_mZy_GFQR7K3SIdown" name="Page-1">
    <mxGraphModel dx="678" dy="477" grid="1" gridSize="10" guides="1" tooltips="1" connect="1" arrows="1" fold="1" page="1" pageScale="1" pageWidth="827" pageHeight="1169" math="0" shadow="0">
      <root>
        <mxCell id="0" />
        <mxCell id="1" parent="0" />
        <mxCell id="cn2O7pIZAjGuNFKCRrW5-1" value="PayInfoVO" style="rounded=1;whiteSpace=wrap;html=1;" vertex="1" parent="1">
          <mxGeometry x="300" y="180" width="120" height="60" as="geometry" />
        </mxCell>
        <mxCell id="cn2O7pIZAjGuNFKCRrW5-6" value="" style="edgeStyle=orthogonalEdgeStyle;rounded=0;orthogonalLoop=1;jettySize=auto;html=1;" edge="1" parent="1" source="cn2O7pIZAjGuNFKCRrW5-2" target="cn2O7pIZAjGuNFKCRrW5-5">
          <mxGeometry relative="1" as="geometry" />
        </mxCell>
        <mxCell id="cn2O7pIZAjGuNFKCRrW5-7" value="" style="edgeStyle=orthogonalEdgeStyle;rounded=0;orthogonalLoop=1;jettySize=auto;html=1;" edge="1" parent="1" source="cn2O7pIZAjGuNFKCRrW5-2" target="cn2O7pIZAjGuNFKCRrW5-5">
          <mxGeometry relative="1" as="geometry" />
        </mxCell>
        <mxCell id="cn2O7pIZAjGuNFKCRrW5-9" value="" style="edgeStyle=orthogonalEdgeStyle;rounded=0;orthogonalLoop=1;jettySize=auto;html=1;" edge="1" parent="1" source="cn2O7pIZAjGuNFKCRrW5-2" target="cn2O7pIZAjGuNFKCRrW5-8">
          <mxGeometry relative="1" as="geometry" />
        </mxCell>
        <mxCell id="cn2O7pIZAjGuNFKCRrW5-11" style="edgeStyle=orthogonalEdgeStyle;rounded=0;orthogonalLoop=1;jettySize=auto;html=1;exitX=0.5;exitY=0;exitDx=0;exitDy=0;entryX=1;entryY=0.5;entryDx=0;entryDy=0;" edge="1" parent="1" source="cn2O7pIZAjGuNFKCRrW5-2" target="cn2O7pIZAjGuNFKCRrW5-10">
          <mxGeometry relative="1" as="geometry" />
        </mxCell>
        <mxCell id="cn2O7pIZAjGuNFKCRrW5-2" value="PayStrategy" style="rounded=1;whiteSpace=wrap;html=1;" vertex="1" parent="1">
          <mxGeometry x="310" y="370" width="120" height="60" as="geometry" />
        </mxCell>
        <mxCell id="cn2O7pIZAjGuNFKCRrW5-5" value="AlipayStrategy&lt;br&gt;" style="whiteSpace=wrap;html=1;rounded=1;" vertex="1" parent="1">
          <mxGeometry x="500" y="300" width="120" height="60" as="geometry" />
        </mxCell>
        <mxCell id="cn2O7pIZAjGuNFKCRrW5-8" value="WechatPayStrategy" style="whiteSpace=wrap;html=1;rounded=1;" vertex="1" parent="1">
          <mxGeometry x="500" y="460" width="120" height="60" as="geometry" />
        </mxCell>
        <mxCell id="cn2O7pIZAjGuNFKCRrW5-10" value="PayStrategyContext" style="rounded=1;whiteSpace=wrap;html=1;" vertex="1" parent="1">
          <mxGeometry x="120" y="320" width="120" height="60" as="geometry" />
        </mxCell>
        <mxCell id="cn2O7pIZAjGuNFKCRrW5-13" value="Base on pay type" style="edgeStyle=orthogonalEdgeStyle;rounded=0;orthogonalLoop=1;jettySize=auto;html=1;exitX=1;exitY=0.5;exitDx=0;exitDy=0;" edge="1" parent="1" source="cn2O7pIZAjGuNFKCRrW5-12" target="cn2O7pIZAjGuNFKCRrW5-1">
          <mxGeometry relative="1" as="geometry" />
        </mxCell>
        <mxCell id="cn2O7pIZAjGuNFKCRrW5-14" style="edgeStyle=orthogonalEdgeStyle;rounded=0;orthogonalLoop=1;jettySize=auto;html=1;exitX=0.5;exitY=1;exitDx=0;exitDy=0;entryX=0.5;entryY=0;entryDx=0;entryDy=0;" edge="1" parent="1" source="cn2O7pIZAjGuNFKCRrW5-12" target="cn2O7pIZAjGuNFKCRrW5-10">
          <mxGeometry relative="1" as="geometry" />
        </mxCell>
        <mxCell id="cn2O7pIZAjGuNFKCRrW5-15" value="Find the strategy&lt;br&gt;" style="edgeLabel;html=1;align=center;verticalAlign=middle;resizable=0;points=[];" vertex="1" connectable="0" parent="cn2O7pIZAjGuNFKCRrW5-14">
          <mxGeometry x="-0.2571" y="1" relative="1" as="geometry">
            <mxPoint as="offset" />
          </mxGeometry>
        </mxCell>
        <mxCell id="cn2O7pIZAjGuNFKCRrW5-12" value="PayFactory" style="rounded=1;whiteSpace=wrap;html=1;" vertex="1" parent="1">
          <mxGeometry x="60" y="180" width="120" height="60" as="geometry" />
        </mxCell>
      </root>
    </mxGraphModel>
  </diagram>
</mxfile>
